PathFileType	4	(X/Y/Z)
DataRate	CameraRate	NumFrames	NumMarkers	Units	OrigDataRate	OrigDataStartFrame	OrigNumFrames	
  120.0	  120.0	    5	     64	     mm	  120.0	      60	    239
Frame#	Time	LASI			RASI			LPSI			RPSI			RTH1			RTH2			RTH3			RLFC			RMFC			LTH1			LTH2			LTH3			LLFC			LMFC			RTB1			RTB2			RTB3			RLMAL			RMMAL			LTB1			LTB2			LTB3			LMMAL			LLMAL			RCAL			RTOE			RMT5			LCAL			LTOE			LMT5			LACR			RACR			CLAV			C7			LASH			LPSH			RASH			RPSH			RUA1			RUA2			RUA3			RLEL			RMEL			LUA1			LUA2			LUA3			LLEL			LMEL			RFAsuperior			RFAradius			RFAulna			LFAsuperior			LFAradius			LFAulna			RHJC			LHJC			RKJC			LKJC			RAJC			LAJC			RSJC			LSJC			REJC			LEJC			
		X1	Y1	Z1	X2	Y2	Z2	X3	Y3	Z3	X4	Y4	Z4	X5	Y5	Z5	X6	Y6	Z6	X7	Y7	Z7	X8	Y8	Z8	X9	Y9	Z9	X10	Y10	Z10	X11	Y11	Z11	X12	Y12	Z12	X13	Y13	Z13	X14	Y14	Z14	X15	Y15	Z15	X16	Y16	Z16	X17	Y17	Z17	X18	Y18	Z18	X19	Y19	Z19	X20	Y20	Z20	X21	Y21	Z21	X22	Y22	Z22	X23	Y23	Z23	X24	Y24	Z24	X25	Y25	Z25	X26	Y26	Z26	X27	Y27	Z27	X28	Y28	Z28	X29	Y29	Z29	X30	Y30	Z30	X31	Y31	Z31	X32	Y32	Z32	X33	Y33	Z33	X34	Y34	Z34	X35	Y35	Z35	X36	Y36	Z36	X37	Y37	Z37	X38	Y38	Z38	X39	Y39	Z39	X40	Y40	Z40	X41	Y41	Z41	X42	Y42	Z42	X43	Y43	Z43	X44	Y44	Z44	X45	Y45	Z45	X46	Y46	Z46	X47	Y47	Z47	X48	Y48	Z48	X49	Y49	Z49	X50	Y50	Z50	X51	Y51	Z51	X52	Y52	Z52	X53	Y53	Z53	X54	Y54	Z54	X55	Y55	Z55	X56	Y56	Z56	X57	Y57	Z57	X58	Y58	Z58	X59	Y59	Z59	X60	Y60	Z60	X61	Y61	Z61	X62	Y62	Z62	X63	Y63	Z63	X64	Y64	Z64	

60	0.49167	609.47125	1099.43762	-625.03314	753.61829	1106.80969	-404.68158	508.89185	1134.15710	-449.92127	551.66071	1132.21777	-377.60086	721.64532	941.43439	-307.94632	747.40643	830.38934	-328.09665	661.08386	726.18829	-289.43951	682.44147	551.11359	-292.12021	584.45685	531.92895	-367.28055	502.10910	895.27893	-629.24841	533.73969	766.77154	-642.66156	461.94321	665.49799	-585.59125	466.29498	563.83527	-593.89105	515.55585	549.96100	-480.23547	665.43127	416.85526	-355.11798	690.41150	355.61438	-282.83508	667.36395	250.01672	-345.58774	662.39594	124.58636	-286.68414	625.44885	130.85240	-358.72870	512.08807	428.61334	-573.84662	457.06741	347.89722	-609.38055	508.06381	228.99327	-575.05920	502.82272	127.41038	-529.35358	449.09872	124.74042	-589.58838	581.97827	99.31563	-289.15958	742.41333	57.59827	-437.31671	773.70551	54.44086	-324.61838	422.57971	97.36239	-518.97723	630.03961	63.48080	-615.24762	533.76813	53.31569	-680.25195	492.40381	1603.92773	-568.45306	669.48151	1603.95203	-322.08508	669.03076	1551.12305	-470.89563	544.46265	1601.01929	-411.66605	553.18298	1560.78503	-593.21344	425.22208	1541.75623	-546.10388	714.97943	1560.37756	-364.29153	621.67902	1552.75378	-272.95975	715.05518	1571.12793	-235.30580	792.91687	1540.19641	-218.35843	761.72040	1508.46545	-156.60318	879.08484	1499.67493	-65.60114	878.12872	1426.78027	-100.65756	426.32550	1575.50488	-629.89777	433.07013	1557.95557	-692.15375	373.41339	1485.84119	-668.84253	306.52640	1490.88281	-835.10986	325.98727	1413.30103	-826.26788	958.14386	1543.85291	-127.13664	1088.81384	1541.95532	-252.72017	1118.75891	1564.49463	-191.60432	386.44836	1523.94690	-883.75806	552.24982	1515.38672	-966.61444	510.61090	1525.47620	-1025.55579	670.26689	1032.20456	-396.59054	573.85628	1030.27544	-551.14900	633.44916	541.52127	-329.70038	490.92541	556.89813	-537.06326	643.92239	127.71938	-322.70642	475.96072	126.07540	-559.47098	668.32922	1556.56567	-318.62564	489.20253	1551.27063	-569.65866	878.60678	1463.22760	-83.12935	316.25684	1452.09192	-830.68887	
61	0.50000	609.47357	1099.42969	-625.06500	753.69110	1106.81384	-404.64783	508.88568	1134.16541	-449.90695	551.68286	1132.20740	-377.59268	721.66315	941.43555	-307.95196	747.43396	830.42188	-328.07929	661.12085	726.18481	-289.45285	682.44067	551.11237	-292.12253	584.47644	531.89966	-367.24292	502.08695	895.28290	-629.23578	533.76245	766.83868	-642.69348	461.96426	665.48737	-585.59656	466.27481	563.83209	-593.89374	515.55872	549.94452	-480.25217	665.41540	416.85526	-355.05496	690.39081	355.63492	-282.82013	667.36346	250.01476	-345.58283	662.42535	124.59892	-286.68701	625.41302	130.84430	-358.64978	512.10150	428.61792	-573.83057	457.06406	347.88446	-609.36957	508.04422	229.02892	-575.08044	502.82227	127.41068	-529.35358	449.13370	124.77924	-589.58569	581.99286	99.33013	-289.14783	742.43744	57.67920	-437.43494	773.72961	54.42593	-324.62286	422.58325	97.35195	-519.00403	630.04724	63.46421	-615.25507	533.80219	53.33304	-680.28302	492.45709	1603.93176	-568.46185	669.52203	1603.93152	-322.10230	669.07288	1551.13709	-470.88061	544.50562	1601.04138	-411.67258	553.19159	1560.78809	-593.21765	425.34274	1541.74085	-546.13843	715.00928	1560.39282	-364.25879	621.72430	1552.76965	-272.98703	715.07428	1571.11975	-235.30046	792.96967	1540.17700	-218.36482	761.74396	1508.45215	-156.61218	879.14563	1499.63171	-65.61987	878.18591	1426.74182	-100.71506	426.48737	1575.46863	-629.94147	433.13409	1557.95911	-692.17981	373.41324	1485.84131	-668.84235	306.46927	1490.88953	-835.12433	326.05487	1413.29981	-826.31506	958.20850	1543.80029	-127.19860	1088.86084	1541.94348	-252.74115	1118.81592	1564.47119	-191.61418	386.25793	1523.93921	-883.71771	552.23114	1515.34790	-966.59131	510.63156	1525.47400	-1025.56677	670.29582	1032.20767	-396.58190	573.89038	1030.26843	-551.14383	633.45856	541.50601	-329.68272	490.91676	556.88831	-537.07295	643.91919	127.72161	-322.66840	475.97798	126.09496	-559.46963	668.36679	1556.58124	-318.62291	489.26717	1551.26447	-569.67804	878.66577	1463.18677	-83.16746	316.26207	1452.09467	-830.71970	
62	0.50833	609.47369	1099.42969	-625.06519	753.69043	1106.83044	-404.64410	508.89661	1134.13147	-449.92612	551.67285	1132.21985	-377.60254	721.68091	941.43146	-307.96405	747.43439	830.42236	-328.07822	661.12268	726.15228	-289.45740	682.46930	551.14813	-292.10657	584.46167	531.92755	-367.25140	502.07065	895.28864	-629.20844	533.69989	766.77136	-642.65540	461.95551	665.48547	-585.59381	466.24088	563.83997	-593.87897	515.54626	549.95447	-480.25815	665.42523	416.85843	-355.06552	690.45343	355.60745	-282.85996	667.37274	250.06809	-345.62878	662.38593	124.57953	-286.71109	625.43384	130.84402	-358.64618	512.08008	428.61166	-573.84485	457.06592	347.88092	-609.38562	508.04279	228.98230	-575.05170	502.82239	127.41055	-529.35358	449.09192	124.74609	-589.56812	582.17059	99.18044	-289.29483	742.39185	57.56182	-437.26746	773.73730	54.51693	-324.55234	422.57214	97.34901	-518.99774	630.07416	63.48487	-615.35071	533.78766	53.30440	-680.30609	492.45779	1603.94043	-568.44928	669.56879	1603.94299	-322.06281	669.10913	1551.12817	-470.86731	544.55695	1601.08069	-411.66641	553.21551	1560.75305	-593.18426	425.45459	1541.75916	-546.11938	715.02631	1560.38586	-364.28311	621.76160	1552.68201	-273.17313	715.12518	1571.10840	-235.30812	793.02832	1540.14282	-218.41243	761.77515	1508.44495	-156.58154	879.19244	1499.59778	-65.64613	878.23737	1426.70288	-100.75747	426.52002	1575.50452	-629.95935	433.19305	1557.94067	-692.22498	373.46884	1485.86279	-668.84381	306.48169	1490.92639	-835.07886	326.03003	1413.31091	-826.25427	958.24780	1543.77930	-127.20602	1088.91638	1541.91187	-252.79691	1118.85291	1564.42444	-191.70381	386.52414	1523.94910	-883.76825	552.23010	1515.32898	-966.54511	510.66659	1525.46790	-1025.58411	670.30026	1032.21487	-396.58247	573.90427	1030.26301	-551.15031	633.46548	541.53784	-329.67899	490.89357	556.89722	-537.06856	643.90988	127.71178	-322.67863	475.95715	126.07832	-559.46085	668.39395	1556.53394	-318.72812	489.33505	1551.25610	-569.65182	878.71491	1463.15033	-83.20180	316.25586	1452.11865	-830.66656	
63	0.51667	609.44415	1099.42261	-624.96387	753.69794	1106.81909	-404.64002	508.89389	1134.17981	-449.90894	551.68817	1132.22412	-377.57599	721.68835	941.46960	-307.94507	747.39520	830.37274	-328.19605	661.14014	726.16455	-289.46362	682.46991	551.14899	-292.10495	584.48248	531.92835	-367.28073	502.11514	895.28217	-629.27838	533.71368	766.76685	-642.64508	461.96927	665.47241	-585.60376	466.26364	563.82062	-593.88824	515.55719	549.90857	-480.22284	665.51977	416.87210	-355.09619	690.44495	355.58633	-282.88440	667.36444	250.01758	-345.58960	662.39734	124.60945	-286.68948	625.44910	130.81761	-358.62900	512.08801	428.61334	-573.84662	457.10217	347.85193	-609.38904	508.07474	229.03488	-575.11591	502.82242	127.41055	-529.35358	449.08774	124.74477	-589.56598	582.01697	99.33347	-289.15375	742.43530	57.60713	-437.33389	773.72046	54.46639	-324.59580	422.57483	97.36300	-518.98132	630.05145	63.50196	-615.30536	533.80365	53.30681	-680.30335	492.50397	1603.91162	-568.47430	669.60962	1603.96338	-322.06869	669.13818	1551.12659	-470.90909	544.56177	1601.07654	-411.65622	553.23499	1560.75378	-593.17255	425.49228	1541.76221	-546.11975	715.03204	1560.35584	-364.12064	621.78827	1552.77954	-272.98465	715.17877	1571.10327	-235.40558	793.15369	1540.22046	-218.15338	761.82434	1508.38940	-156.67683	879.24188	1499.57349	-65.56165	878.19037	1426.61902	-100.89501	426.55093	1575.49731	-629.96075	433.24136	1557.94214	-692.20471	373.52481	1485.87488	-668.83374	306.54150	1490.91541	-835.10516	326.07190	1413.30701	-826.26544	958.28369	1543.73230	-127.23502	1088.95886	1541.89221	-252.83356	1118.93030	1564.41272	-191.70344	386.51086	1523.91528	-883.77179	552.22998	1515.32886	-966.54462	510.71317	1525.44604	-1025.60193	670.27625	1032.22507	-396.52311	573.89166	1030.26231	-551.09910	633.47620	541.53867	-329.69284	490.91042	556.86459	-537.05554	643.92322	127.71353	-322.65924	475.95508	126.07766	-559.45978	668.41016	1556.56769	-318.55264	489.36363	1551.25800	-569.64615	878.71613	1463.09625	-83.22833	316.30670	1452.11121	-830.68530	
64	0.52500	609.46491	1099.41846	-624.97821	753.71863	1106.79749	-404.72882	508.91400	1134.17029	-449.91592	551.69733	1132.21643	-377.59534	721.68097	941.43170	-307.96381	747.42126	830.38159	-328.12125	661.11493	726.17700	-289.47937	682.46967	551.14862	-292.10565	584.52625	531.91589	-367.28037	502.09970	895.26636	-629.22754	533.72125	766.76892	-642.66888	461.96222	665.47754	-585.58350	466.27866	563.83276	-593.89459	515.54626	549.95435	-480.25793	665.49890	416.87140	-355.15460	690.44342	355.58591	-282.89163	667.36279	250.01479	-345.58344	662.40478	124.60363	-286.67773	625.47766	130.84207	-358.68686	512.08185	428.60391	-573.83093	457.09732	347.87970	-609.37366	508.07147	228.99944	-575.10443	502.81915	127.44347	-529.34357	449.10059	124.71756	-589.58667	582.01141	99.32722	-289.15546	742.42126	57.55673	-437.25088	773.74646	54.45168	-324.60516	422.59320	97.33910	-519.01123	630.03394	63.49811	-615.25421	533.82996	53.30873	-680.30194	492.55081	1603.93518	-568.48370	669.66760	1603.95471	-322.06183	669.18408	1551.10925	-470.88596	544.63678	1601.06543	-411.68393	553.23761	1560.77087	-593.13165	425.39862	1541.78650	-546.09210	715.13355	1560.37927	-364.28274	621.86890	1552.77747	-272.99084	715.24237	1571.09021	-235.33594	793.20996	1540.18982	-218.19218	761.86969	1508.40979	-156.70819	879.28485	1499.51477	-65.60595	878.21551	1426.60266	-100.96455	426.50034	1575.51514	-629.92938	433.27124	1557.94702	-692.20911	373.52499	1485.87500	-668.83374	306.61325	1490.90186	-835.09522	326.11670	1413.30225	-826.27930	958.33624	1543.69824	-127.24271	1088.99902	1541.86755	-252.85043	1118.97095	1564.32104	-191.68199	386.47494	1523.86218	-883.78528	552.23016	1515.32910	-966.54504	510.71283	1525.44434	-1025.60559	670.30481	1032.20823	-396.57159	573.89739	1030.25609	-551.13350	633.49796	541.53226	-329.69301	490.91246	556.89355	-537.07626	643.94122	127.72285	-322.68230	475.95987	126.08051	-559.46512	668.50122	1556.57837	-318.63680	489.31812	1551.27869	-569.61188	878.75018	1463.05872	-83.28525	316.36497	1452.10205	-830.68726	
